<svg xmlns="http://www.w3.org/2000/svg" xmlns:xlink="http://www.w3.org/1999/xlink" width="512" zoomAndPan="magnify" viewBox="0 0 384 383.999986" height="512" preserveAspectRatio="xMidYMid meet" version="1.0"><defs><g/><clipPath id="505c38ddfc"><path d="M 38.398438 0 L 345.601562 0 C 366.808594 0 384 17.191406 384 38.398438 L 384 345.601562 C 384 366.808594 366.808594 384 345.601562 384 L 38.398438 384 C 17.191406 384 0 366.808594 0 345.601562 L 0 38.398438 C 0 17.191406 17.191406 0 38.398438 0 Z M 38.398438 0 " clip-rule="nonzero"/></clipPath></defs><g clip-path="url(#505c38ddfc)"><rect x="-38.4" width="460.8" fill="#23466b" y="-38.399999" height="460.799983" fill-opacity="1"/></g><g fill="#ffffff" fill-opacity="1"><g transform="translate(64.945315, 271.749953)"><g><path d="M 17.8125 -159.0625 L 50.15625 -159.0625 L 50.15625 -27.171875 L 119.234375 -27.171875 L 119.234375 0 L 17.8125 0 Z M 17.8125 -159.0625 "/></g></g></g><g fill="#e69e3a" fill-opacity="1"><g transform="translate(191.999992, 271.749953)"><g><path d="M 17.8125 -159.0625 L 50.15625 -159.0625 L 50.15625 -27.171875 L 119.234375 -27.171875 L 119.234375 0 L 17.8125 0 Z M 17.8125 -159.0625 "/></g></g></g></svg>