<svg xmlns="http://www.w3.org/2000/svg" xmlns:xlink="http://www.w3.org/1999/xlink" width="1200" zoomAndPan="magnify" viewBox="0 0 900 225" height="300" preserveAspectRatio="xMidYMid meet" version="1.0"><defs><g/></defs><g fill="#23466b" fill-opacity="1"><g transform="translate(202.242179, 157.716302)"><g><path d="M 10.15625 -90.609375 L 28.578125 -90.609375 L 28.578125 -15.484375 L 67.921875 -15.484375 L 67.921875 0 L 10.15625 0 Z M 10.15625 -90.609375 "/></g></g></g><g fill="#23466b" fill-opacity="1"><g transform="translate(274.621479, 157.716302)"><g><path d="M 10.15625 -90.609375 L 28.390625 -90.609375 L 28.390625 0 L 10.15625 0 Z M 10.15625 -90.609375 "/></g></g></g><g fill="#23466b" fill-opacity="1"><g transform="translate(313.161104, 157.716302)"><g><path d="M 69.625 -90.609375 L 87.921875 -90.609375 L 87.921875 0 L 71.4375 0 L 28.390625 -62.34375 L 28.390625 0 L 10.15625 0 L 10.15625 -90.609375 L 28.265625 -90.609375 L 69.625 -30.640625 Z M 69.625 -90.609375 "/></g></g></g><g fill="#23466b" fill-opacity="1"><g transform="translate(411.170819, 157.716302)"><g><path d="M 86.46875 0 L 66.546875 0 L 42.546875 -42.171875 L 29.140625 -26 L 29.140625 0 L 10.15625 0 L 10.15625 -90.609375 L 29.140625 -90.609375 L 29.140625 -49.125 L 62.15625 -90.609375 L 83.15625 -90.609375 L 55.640625 -55.515625 Z M 86.46875 0 "/></g></g></g><g fill="#e69e3a" fill-opacity="1"><g transform="translate(501.035139, 157.716302)"><g><path d="M 10.15625 -90.609375 L 28.578125 -90.609375 L 28.578125 -15.484375 L 67.921875 -15.484375 L 67.921875 0 L 10.15625 0 Z M 10.15625 -90.609375 "/></g></g></g><g fill="#e69e3a" fill-opacity="1"><g transform="translate(573.414439, 157.716302)"><g><path d="M 10.15625 -90.609375 L 28.390625 -90.609375 L 28.390625 0 L 10.15625 0 Z M 10.15625 -90.609375 "/></g></g></g><g fill="#e69e3a" fill-opacity="1"><g transform="translate(611.954064, 157.716302)"><g><path d="M 10.15625 0 L 10.15625 -90.609375 L 42.984375 -90.609375 C 54.847656 -90.609375 63.648438 -88.570312 69.390625 -84.5 C 75.140625 -80.425781 78.015625 -74.546875 78.015625 -66.859375 C 78.015625 -62.347656 76.863281 -58.429688 74.5625 -55.109375 C 72.269531 -51.785156 68.175781 -48.894531 62.28125 -46.4375 C 66.082031 -45.476562 69.15625 -44.179688 71.5 -42.546875 C 73.84375 -40.921875 75.640625 -39.113281 76.890625 -37.125 C 78.140625 -35.144531 78.992188 -33.078125 79.453125 -30.921875 C 79.910156 -28.773438 80.140625 -26.65625 80.140625 -24.5625 C 80.140625 -16.207031 77.300781 -10.023438 71.625 -6.015625 C 65.945312 -2.003906 56.898438 0 44.484375 0 Z M 28.390625 -14.15625 L 44.875 -14.15625 C 50.382812 -14.15625 54.546875 -15.257812 57.359375 -17.46875 C 60.179688 -19.6875 61.59375 -22.65625 61.59375 -26.375 C 61.59375 -29.050781 60.90625 -31.296875 59.53125 -33.109375 C 58.15625 -34.929688 56.285156 -36.300781 53.921875 -37.21875 C 51.554688 -38.132812 48.875 -38.59375 45.875 -38.59375 L 28.390625 -38.59375 Z M 28.390625 -53.140625 L 45.875 -53.140625 C 47.75 -53.140625 49.550781 -53.359375 51.28125 -53.796875 C 53.019531 -54.234375 54.566406 -54.910156 55.921875 -55.828125 C 57.285156 -56.753906 58.363281 -57.9375 59.15625 -59.375 C 59.945312 -60.8125 60.34375 -62.515625 60.34375 -64.484375 C 60.34375 -68.410156 58.867188 -71.382812 55.921875 -73.40625 C 52.984375 -75.4375 49.210938 -76.453125 44.609375 -76.453125 L 28.390625 -76.453125 Z M 28.390625 -53.140625 "/></g></g></g></svg>